<mxfile host="65bd71144e" pages="2">
    <diagram name="Administrative" id="uBhWI8BIQsNJmCpBJ0XB">
        <mxGraphModel dx="1418" dy="1873" grid="1" gridSize="10" guides="1" tooltips="1" connect="1" arrows="1" fold="1" page="1" pageScale="1" pageWidth="850" pageHeight="1100" math="0" shadow="0">
            <root>
                <mxCell id="0"/>
                <mxCell id="1" parent="0"/>
                <mxCell id="QIzUOzkJcGM86TvKOHy5-64" value="Email" style="swimlane;fontStyle=0;childLayout=stackLayout;horizontal=1;startSize=26;fillColor=none;horizontalStack=0;resizeParent=1;resizeParentMax=0;resizeLast=0;collapsible=1;marginBottom=0;" parent="1" vertex="1">
                    <mxGeometry x="-565" y="-320" width="140" height="70" as="geometry">
                        <mxRectangle x="260" y="150" width="70" height="30" as="alternateBounds"/>
                    </mxGeometry>
                </mxCell>
                <mxCell id="QIzUOzkJcGM86TvKOHy5-65" value="+ user: User" style="text;strokeColor=none;fillColor=none;align=left;verticalAlign=top;spacingLeft=4;spacingRight=4;overflow=hidden;rotatable=0;points=[[0,0.5],[1,0.5]];portConstraint=eastwest;" parent="QIzUOzkJcGM86TvKOHy5-64" vertex="1">
                    <mxGeometry y="26" width="140" height="22" as="geometry"/>
                </mxCell>
                <mxCell id="QIzUOzkJcGM86TvKOHy5-66" value="+ value: string" style="text;strokeColor=none;fillColor=none;align=left;verticalAlign=top;spacingLeft=4;spacingRight=4;overflow=hidden;rotatable=0;points=[[0,0.5],[1,0.5]];portConstraint=eastwest;" parent="QIzUOzkJcGM86TvKOHy5-64" vertex="1">
                    <mxGeometry y="48" width="140" height="22" as="geometry"/>
                </mxCell>
                <mxCell id="QIzUOzkJcGM86TvKOHy5-67" value="PhoneN" style="swimlane;fontStyle=0;childLayout=stackLayout;horizontal=1;startSize=26;fillColor=none;horizontalStack=0;resizeParent=1;resizeParentMax=0;resizeLast=0;collapsible=1;marginBottom=0;" parent="1" vertex="1">
                    <mxGeometry x="-540" y="-640" width="140" height="70" as="geometry">
                        <mxRectangle x="260" y="150" width="70" height="30" as="alternateBounds"/>
                    </mxGeometry>
                </mxCell>
                <mxCell id="QIzUOzkJcGM86TvKOHy5-68" value="+ user: User" style="text;strokeColor=none;fillColor=none;align=left;verticalAlign=top;spacingLeft=4;spacingRight=4;overflow=hidden;rotatable=0;points=[[0,0.5],[1,0.5]];portConstraint=eastwest;" parent="QIzUOzkJcGM86TvKOHy5-67" vertex="1">
                    <mxGeometry y="26" width="140" height="22" as="geometry"/>
                </mxCell>
                <mxCell id="QIzUOzkJcGM86TvKOHy5-69" value="+ value: string" style="text;strokeColor=none;fillColor=none;align=left;verticalAlign=top;spacingLeft=4;spacingRight=4;overflow=hidden;rotatable=0;points=[[0,0.5],[1,0.5]];portConstraint=eastwest;" parent="QIzUOzkJcGM86TvKOHy5-67" vertex="1">
                    <mxGeometry y="48" width="140" height="22" as="geometry"/>
                </mxCell>
                <mxCell id="QIzUOzkJcGM86TvKOHy5-71" value="Address" style="swimlane;fontStyle=0;childLayout=stackLayout;horizontal=1;startSize=26;fillColor=none;horizontalStack=0;resizeParent=1;resizeParentMax=0;resizeLast=0;collapsible=1;marginBottom=0;" parent="1" vertex="1">
                    <mxGeometry x="-575" y="-550" width="150" height="208" as="geometry"/>
                </mxCell>
                <mxCell id="QIzUOzkJcGM86TvKOHy5-79" value="+ user: User" style="text;strokeColor=none;fillColor=none;align=left;verticalAlign=top;spacingLeft=4;spacingRight=4;overflow=hidden;rotatable=0;points=[[0,0.5],[1,0.5]];portConstraint=eastwest;" parent="QIzUOzkJcGM86TvKOHy5-71" vertex="1">
                    <mxGeometry y="26" width="150" height="26" as="geometry"/>
                </mxCell>
                <mxCell id="QIzUOzkJcGM86TvKOHy5-73" value="+ street: string" style="text;strokeColor=none;fillColor=none;align=left;verticalAlign=top;spacingLeft=4;spacingRight=4;overflow=hidden;rotatable=0;points=[[0,0.5],[1,0.5]];portConstraint=eastwest;" parent="QIzUOzkJcGM86TvKOHy5-71" vertex="1">
                    <mxGeometry y="52" width="150" height="26" as="geometry"/>
                </mxCell>
                <mxCell id="QIzUOzkJcGM86TvKOHy5-74" value="+ number?: int" style="text;strokeColor=none;fillColor=none;align=left;verticalAlign=top;spacingLeft=4;spacingRight=4;overflow=hidden;rotatable=0;points=[[0,0.5],[1,0.5]];portConstraint=eastwest;" parent="QIzUOzkJcGM86TvKOHy5-71" vertex="1">
                    <mxGeometry y="78" width="150" height="26" as="geometry"/>
                </mxCell>
                <mxCell id="QIzUOzkJcGM86TvKOHy5-75" value="+ neighborhood?: string" style="text;strokeColor=none;fillColor=none;align=left;verticalAlign=top;spacingLeft=4;spacingRight=4;overflow=hidden;rotatable=0;points=[[0,0.5],[1,0.5]];portConstraint=eastwest;" parent="QIzUOzkJcGM86TvKOHy5-71" vertex="1">
                    <mxGeometry y="104" width="150" height="26" as="geometry"/>
                </mxCell>
                <mxCell id="QIzUOzkJcGM86TvKOHy5-76" value="+ city: string" style="text;strokeColor=none;fillColor=none;align=left;verticalAlign=top;spacingLeft=4;spacingRight=4;overflow=hidden;rotatable=0;points=[[0,0.5],[1,0.5]];portConstraint=eastwest;" parent="QIzUOzkJcGM86TvKOHy5-71" vertex="1">
                    <mxGeometry y="130" width="150" height="26" as="geometry"/>
                </mxCell>
                <mxCell id="QIzUOzkJcGM86TvKOHy5-77" value="+ state: char(2)" style="text;strokeColor=none;fillColor=none;align=left;verticalAlign=top;spacingLeft=4;spacingRight=4;overflow=hidden;rotatable=0;points=[[0,0.5],[1,0.5]];portConstraint=eastwest;" parent="QIzUOzkJcGM86TvKOHy5-71" vertex="1">
                    <mxGeometry y="156" width="150" height="26" as="geometry"/>
                </mxCell>
                <mxCell id="QIzUOzkJcGM86TvKOHy5-78" value="+ cep: string(10)" style="text;strokeColor=none;fillColor=none;align=left;verticalAlign=top;spacingLeft=4;spacingRight=4;overflow=hidden;rotatable=0;points=[[0,0.5],[1,0.5]];portConstraint=eastwest;" parent="QIzUOzkJcGM86TvKOHy5-71" vertex="1">
                    <mxGeometry y="182" width="150" height="26" as="geometry"/>
                </mxCell>
                <mxCell id="WTDt0GHA9MhhRUvqb6vY-18" value="UserType" style="swimlane;fontStyle=0;childLayout=stackLayout;horizontal=1;startSize=26;fillColor=none;horizontalStack=0;resizeParent=1;resizeParentMax=0;resizeLast=0;collapsible=1;marginBottom=0;" parent="1" vertex="1">
                    <mxGeometry x="-510" y="-800" width="140" height="130" as="geometry">
                        <mxRectangle x="260" y="10" width="140" height="40" as="alternateBounds"/>
                    </mxGeometry>
                </mxCell>
                <mxCell id="WTDt0GHA9MhhRUvqb6vY-19" value="+ Student&#10;" style="text;strokeColor=none;fillColor=none;align=left;verticalAlign=top;spacingLeft=4;spacingRight=4;overflow=hidden;rotatable=0;points=[[0,0.5],[1,0.5]];portConstraint=eastwest;" parent="WTDt0GHA9MhhRUvqb6vY-18" vertex="1">
                    <mxGeometry y="26" width="140" height="26" as="geometry"/>
                </mxCell>
                <mxCell id="WTDt0GHA9MhhRUvqb6vY-20" value="+ Administrator" style="text;strokeColor=none;fillColor=none;align=left;verticalAlign=top;spacingLeft=4;spacingRight=4;overflow=hidden;rotatable=0;points=[[0,0.5],[1,0.5]];portConstraint=eastwest;" parent="WTDt0GHA9MhhRUvqb6vY-18" vertex="1">
                    <mxGeometry y="52" width="140" height="26" as="geometry"/>
                </mxCell>
                <mxCell id="WTDt0GHA9MhhRUvqb6vY-21" value="+ User" style="text;strokeColor=none;fillColor=none;align=left;verticalAlign=top;spacingLeft=4;spacingRight=4;overflow=hidden;rotatable=0;points=[[0,0.5],[1,0.5]];portConstraint=eastwest;" parent="WTDt0GHA9MhhRUvqb6vY-18" vertex="1">
                    <mxGeometry y="78" width="140" height="26" as="geometry"/>
                </mxCell>
                <mxCell id="9XrUWJPj0ioBzsvgJjNc-1" value="+ School" style="text;strokeColor=none;fillColor=none;align=left;verticalAlign=top;spacingLeft=4;spacingRight=4;overflow=hidden;rotatable=0;points=[[0,0.5],[1,0.5]];portConstraint=eastwest;" parent="WTDt0GHA9MhhRUvqb6vY-18" vertex="1">
                    <mxGeometry y="104" width="140" height="26" as="geometry"/>
                </mxCell>
                <mxCell id="iqin9Y7en4UzwhMGHiyM-1" value="UserData" style="swimlane;fontStyle=0;childLayout=stackLayout;horizontal=1;startSize=26;fillColor=none;horizontalStack=0;resizeParent=1;resizeParentMax=0;resizeLast=0;collapsible=1;marginBottom=0;whiteSpace=wrap;html=1;" parent="1" vertex="1">
                    <mxGeometry x="-500" y="-230" width="140" height="104" as="geometry"/>
                </mxCell>
                <mxCell id="iqin9Y7en4UzwhMGHiyM-2" value="+ user: User" style="text;strokeColor=none;fillColor=none;align=left;verticalAlign=top;spacingLeft=4;spacingRight=4;overflow=hidden;rotatable=0;points=[[0,0.5],[1,0.5]];portConstraint=eastwest;whiteSpace=wrap;html=1;" parent="iqin9Y7en4UzwhMGHiyM-1" vertex="1">
                    <mxGeometry y="26" width="140" height="26" as="geometry"/>
                </mxCell>
                <mxCell id="iqin9Y7en4UzwhMGHiyM-3" value="+ field: Field" style="text;strokeColor=none;fillColor=none;align=left;verticalAlign=top;spacingLeft=4;spacingRight=4;overflow=hidden;rotatable=0;points=[[0,0.5],[1,0.5]];portConstraint=eastwest;whiteSpace=wrap;html=1;" parent="iqin9Y7en4UzwhMGHiyM-1" vertex="1">
                    <mxGeometry y="52" width="140" height="26" as="geometry"/>
                </mxCell>
                <mxCell id="iqin9Y7en4UzwhMGHiyM-4" value="+ fieldContent: str" style="text;strokeColor=none;fillColor=none;align=left;verticalAlign=top;spacingLeft=4;spacingRight=4;overflow=hidden;rotatable=0;points=[[0,0.5],[1,0.5]];portConstraint=eastwest;whiteSpace=wrap;html=1;" parent="iqin9Y7en4UzwhMGHiyM-1" vertex="1">
                    <mxGeometry y="78" width="140" height="26" as="geometry"/>
                </mxCell>
                <mxCell id="iqin9Y7en4UzwhMGHiyM-6" value="UserDataFields" style="swimlane;fontStyle=0;childLayout=stackLayout;horizontal=1;startSize=26;fillColor=none;horizontalStack=0;resizeParent=1;resizeParentMax=0;resizeLast=0;collapsible=1;marginBottom=0;whiteSpace=wrap;html=1;" parent="1" vertex="1">
                    <mxGeometry x="-720" y="-210" width="140" height="78" as="geometry"/>
                </mxCell>
                <mxCell id="iqin9Y7en4UzwhMGHiyM-7" value="+ fieldName: str" style="text;strokeColor=none;fillColor=none;align=left;verticalAlign=top;spacingLeft=4;spacingRight=4;overflow=hidden;rotatable=0;points=[[0,0.5],[1,0.5]];portConstraint=eastwest;whiteSpace=wrap;html=1;" parent="iqin9Y7en4UzwhMGHiyM-6" vertex="1">
                    <mxGeometry y="26" width="140" height="26" as="geometry"/>
                </mxCell>
                <mxCell id="iqin9Y7en4UzwhMGHiyM-8" value="- contents: UserData[]" style="text;strokeColor=none;fillColor=none;align=left;verticalAlign=top;spacingLeft=4;spacingRight=4;overflow=hidden;rotatable=0;points=[[0,0.5],[1,0.5]];portConstraint=eastwest;whiteSpace=wrap;html=1;" parent="iqin9Y7en4UzwhMGHiyM-6" vertex="1">
                    <mxGeometry y="52" width="140" height="26" as="geometry"/>
                </mxCell>
                <mxCell id="iqin9Y7en4UzwhMGHiyM-9" style="edgeStyle=orthogonalEdgeStyle;rounded=0;orthogonalLoop=1;jettySize=auto;html=1;startArrow=classic;startFill=1;" parent="1" source="iqin9Y7en4UzwhMGHiyM-8" target="iqin9Y7en4UzwhMGHiyM-3" edge="1">
                    <mxGeometry relative="1" as="geometry"/>
                </mxCell>
                <mxCell id="Fe93E9ub8CbCRL2xEaTF-18" value="User" style="swimlane;fontStyle=1;align=center;verticalAlign=top;childLayout=stackLayout;horizontal=1;startSize=26;horizontalStack=0;resizeParent=1;resizeParentMax=0;resizeLast=0;collapsible=1;marginBottom=0;" parent="1" vertex="1">
                    <mxGeometry x="-290" y="-650" width="180" height="294" as="geometry">
                        <mxRectangle x="650" y="-30" width="70" height="30" as="alternateBounds"/>
                    </mxGeometry>
                </mxCell>
                <mxCell id="Fe93E9ub8CbCRL2xEaTF-19" value="+ name: string" style="text;strokeColor=none;fillColor=none;align=left;verticalAlign=top;spacingLeft=4;spacingRight=4;overflow=hidden;rotatable=0;points=[[0,0.5],[1,0.5]];portConstraint=eastwest;" parent="Fe93E9ub8CbCRL2xEaTF-18" vertex="1">
                    <mxGeometry y="26" width="180" height="26" as="geometry"/>
                </mxCell>
                <mxCell id="Fe93E9ub8CbCRL2xEaTF-20" value="+ photo: Attach" style="text;strokeColor=none;fillColor=none;align=left;verticalAlign=top;spacingLeft=4;spacingRight=4;overflow=hidden;rotatable=0;points=[[0,0.5],[1,0.5]];portConstraint=eastwest;" parent="Fe93E9ub8CbCRL2xEaTF-18" vertex="1">
                    <mxGeometry y="52" width="180" height="26" as="geometry"/>
                </mxCell>
                <mxCell id="Fe93E9ub8CbCRL2xEaTF-22" value="+ password: string" style="text;strokeColor=none;fillColor=none;align=left;verticalAlign=top;spacingLeft=4;spacingRight=4;overflow=hidden;rotatable=0;points=[[0,0.5],[1,0.5]];portConstraint=eastwest;" parent="Fe93E9ub8CbCRL2xEaTF-18" vertex="1">
                    <mxGeometry y="78" width="180" height="26" as="geometry"/>
                </mxCell>
                <mxCell id="Fe93E9ub8CbCRL2xEaTF-24" value="+ cpf: string" style="text;strokeColor=none;fillColor=none;align=left;verticalAlign=top;spacingLeft=4;spacingRight=4;overflow=hidden;rotatable=0;points=[[0,0.5],[1,0.5]];portConstraint=eastwest;" parent="Fe93E9ub8CbCRL2xEaTF-18" vertex="1">
                    <mxGeometry y="104" width="180" height="26" as="geometry"/>
                </mxCell>
                <mxCell id="Fe93E9ub8CbCRL2xEaTF-26" value="+ birth: Date" style="text;strokeColor=none;fillColor=none;align=left;verticalAlign=top;spacingLeft=4;spacingRight=4;overflow=hidden;rotatable=0;points=[[0,0.5],[1,0.5]];portConstraint=eastwest;" parent="Fe93E9ub8CbCRL2xEaTF-18" vertex="1">
                    <mxGeometry y="130" width="180" height="26" as="geometry"/>
                </mxCell>
                <mxCell id="Fe93E9ub8CbCRL2xEaTF-28" value="+ type: UserType" style="text;strokeColor=none;fillColor=none;align=left;verticalAlign=top;spacingLeft=4;spacingRight=4;overflow=hidden;rotatable=0;points=[[0,0.5],[1,0.5]];portConstraint=eastwest;" parent="Fe93E9ub8CbCRL2xEaTF-18" vertex="1">
                    <mxGeometry y="156" width="180" height="26" as="geometry"/>
                </mxCell>
                <mxCell id="Fe93E9ub8CbCRL2xEaTF-34" value="" style="line;strokeWidth=1;fillColor=none;align=left;verticalAlign=middle;spacingTop=-1;spacingLeft=3;spacingRight=3;rotatable=0;labelPosition=right;points=[];portConstraint=eastwest;strokeColor=inherit;" parent="Fe93E9ub8CbCRL2xEaTF-18" vertex="1">
                    <mxGeometry y="182" width="180" height="8" as="geometry"/>
                </mxCell>
                <mxCell id="Fe93E9ub8CbCRL2xEaTF-23" value="- phones: PhoneN[]" style="text;strokeColor=none;fillColor=none;align=left;verticalAlign=top;spacingLeft=4;spacingRight=4;overflow=hidden;rotatable=0;points=[[0,0.5],[1,0.5]];portConstraint=eastwest;" parent="Fe93E9ub8CbCRL2xEaTF-18" vertex="1">
                    <mxGeometry y="190" width="180" height="26" as="geometry"/>
                </mxCell>
                <mxCell id="Fe93E9ub8CbCRL2xEaTF-27" value="- address: Address" style="text;strokeColor=none;fillColor=none;align=left;verticalAlign=top;spacingLeft=4;spacingRight=4;overflow=hidden;rotatable=0;points=[[0,0.5],[1,0.5]];portConstraint=eastwest;" parent="Fe93E9ub8CbCRL2xEaTF-18" vertex="1">
                    <mxGeometry y="216" width="180" height="26" as="geometry"/>
                </mxCell>
                <mxCell id="Fe93E9ub8CbCRL2xEaTF-21" value="- emails: Email[]" style="text;strokeColor=none;fillColor=none;align=left;verticalAlign=top;spacingLeft=4;spacingRight=4;overflow=hidden;rotatable=0;points=[[0,0.5],[1,0.5]];portConstraint=eastwest;" parent="Fe93E9ub8CbCRL2xEaTF-18" vertex="1">
                    <mxGeometry y="242" width="180" height="26" as="geometry"/>
                </mxCell>
                <mxCell id="Fe93E9ub8CbCRL2xEaTF-29" value="- data: UserData[]" style="text;strokeColor=none;fillColor=none;align=left;verticalAlign=top;spacingLeft=4;spacingRight=4;overflow=hidden;rotatable=0;points=[[0,0.5],[1,0.5]];portConstraint=eastwest;" parent="Fe93E9ub8CbCRL2xEaTF-18" vertex="1">
                    <mxGeometry y="268" width="180" height="26" as="geometry"/>
                </mxCell>
                <mxCell id="p6GhmbJItutHqhhSv6iE-1" style="edgeStyle=orthogonalEdgeStyle;rounded=0;orthogonalLoop=1;jettySize=auto;html=1;startArrow=classic;startFill=1;" parent="1" source="QIzUOzkJcGM86TvKOHy5-65" target="Fe93E9ub8CbCRL2xEaTF-21" edge="1">
                    <mxGeometry relative="1" as="geometry"/>
                </mxCell>
                <mxCell id="p6GhmbJItutHqhhSv6iE-5" style="edgeStyle=orthogonalEdgeStyle;rounded=0;orthogonalLoop=1;jettySize=auto;html=1;startArrow=classic;startFill=1;" parent="1" source="Fe93E9ub8CbCRL2xEaTF-29" target="iqin9Y7en4UzwhMGHiyM-2" edge="1">
                    <mxGeometry relative="1" as="geometry"/>
                </mxCell>
                <mxCell id="4Lz99Nj11EmGjNDSqvpT-2" style="edgeStyle=orthogonalEdgeStyle;rounded=0;orthogonalLoop=1;jettySize=auto;html=1;startArrow=classic;startFill=1;" parent="1" source="Fe93E9ub8CbCRL2xEaTF-27" target="QIzUOzkJcGM86TvKOHy5-79" edge="1">
                    <mxGeometry relative="1" as="geometry"/>
                </mxCell>
                <mxCell id="4Lz99Nj11EmGjNDSqvpT-3" style="edgeStyle=orthogonalEdgeStyle;rounded=0;orthogonalLoop=1;jettySize=auto;html=1;entryX=1;entryY=0.5;entryDx=0;entryDy=0;startArrow=classic;startFill=1;" parent="1" source="Fe93E9ub8CbCRL2xEaTF-23" target="QIzUOzkJcGM86TvKOHy5-67" edge="1">
                    <mxGeometry relative="1" as="geometry"/>
                </mxCell>
                <mxCell id="4Lz99Nj11EmGjNDSqvpT-5" style="edgeStyle=orthogonalEdgeStyle;rounded=0;orthogonalLoop=1;jettySize=auto;html=1;entryX=1;entryY=0.5;entryDx=0;entryDy=0;" parent="1" source="Fe93E9ub8CbCRL2xEaTF-28" target="WTDt0GHA9MhhRUvqb6vY-20" edge="1">
                    <mxGeometry relative="1" as="geometry"/>
                </mxCell>
            </root>
        </mxGraphModel>
    </diagram>
    <diagram id="6ZIXKD9-0o7QYg1bL0Rv" name="Academic">
        <mxGraphModel dx="1418" dy="773" grid="1" gridSize="10" guides="1" tooltips="1" connect="1" arrows="1" fold="1" page="1" pageScale="1" pageWidth="850" pageHeight="1100" math="0" shadow="0">
            <root>
                <mxCell id="0"/>
                <mxCell id="1" parent="0"/>
                <mxCell id="-DWRIGboLSZwD6kZoOFh-1" value="User" style="swimlane;fontStyle=1;align=center;verticalAlign=top;childLayout=stackLayout;horizontal=1;startSize=26;horizontalStack=0;resizeParent=1;resizeParentMax=0;resizeLast=0;collapsible=1;marginBottom=0;" parent="1" vertex="1">
                    <mxGeometry x="-295" y="344" width="180" height="346" as="geometry">
                        <mxRectangle x="650" y="-30" width="70" height="30" as="alternateBounds"/>
                    </mxGeometry>
                </mxCell>
                <mxCell id="-DWRIGboLSZwD6kZoOFh-2" value="+ name: string" style="text;strokeColor=none;fillColor=none;align=left;verticalAlign=top;spacingLeft=4;spacingRight=4;overflow=hidden;rotatable=0;points=[[0,0.5],[1,0.5]];portConstraint=eastwest;" parent="-DWRIGboLSZwD6kZoOFh-1" vertex="1">
                    <mxGeometry y="26" width="180" height="26" as="geometry"/>
                </mxCell>
                <mxCell id="-DWRIGboLSZwD6kZoOFh-3" value="+ photo: Attach" style="text;strokeColor=none;fillColor=none;align=left;verticalAlign=top;spacingLeft=4;spacingRight=4;overflow=hidden;rotatable=0;points=[[0,0.5],[1,0.5]];portConstraint=eastwest;" parent="-DWRIGboLSZwD6kZoOFh-1" vertex="1">
                    <mxGeometry y="52" width="180" height="26" as="geometry"/>
                </mxCell>
                <mxCell id="-DWRIGboLSZwD6kZoOFh-5" value="+ password: string" style="text;strokeColor=none;fillColor=none;align=left;verticalAlign=top;spacingLeft=4;spacingRight=4;overflow=hidden;rotatable=0;points=[[0,0.5],[1,0.5]];portConstraint=eastwest;" parent="-DWRIGboLSZwD6kZoOFh-1" vertex="1">
                    <mxGeometry y="78" width="180" height="26" as="geometry"/>
                </mxCell>
                <mxCell id="-DWRIGboLSZwD6kZoOFh-7" value="+ cpf: string" style="text;strokeColor=none;fillColor=none;align=left;verticalAlign=top;spacingLeft=4;spacingRight=4;overflow=hidden;rotatable=0;points=[[0,0.5],[1,0.5]];portConstraint=eastwest;" parent="-DWRIGboLSZwD6kZoOFh-1" vertex="1">
                    <mxGeometry y="104" width="180" height="26" as="geometry"/>
                </mxCell>
                <mxCell id="-DWRIGboLSZwD6kZoOFh-9" value="+ birth: Date" style="text;strokeColor=none;fillColor=none;align=left;verticalAlign=top;spacingLeft=4;spacingRight=4;overflow=hidden;rotatable=0;points=[[0,0.5],[1,0.5]];portConstraint=eastwest;" parent="-DWRIGboLSZwD6kZoOFh-1" vertex="1">
                    <mxGeometry y="130" width="180" height="26" as="geometry"/>
                </mxCell>
                <mxCell id="-DWRIGboLSZwD6kZoOFh-10" value="+ address: Address" style="text;strokeColor=none;fillColor=none;align=left;verticalAlign=top;spacingLeft=4;spacingRight=4;overflow=hidden;rotatable=0;points=[[0,0.5],[1,0.5]];portConstraint=eastwest;" parent="-DWRIGboLSZwD6kZoOFh-1" vertex="1">
                    <mxGeometry y="156" width="180" height="26" as="geometry"/>
                </mxCell>
                <mxCell id="-DWRIGboLSZwD6kZoOFh-11" value="+ type: UserType" style="text;strokeColor=none;fillColor=none;align=left;verticalAlign=top;spacingLeft=4;spacingRight=4;overflow=hidden;rotatable=0;points=[[0,0.5],[1,0.5]];portConstraint=eastwest;" parent="-DWRIGboLSZwD6kZoOFh-1" vertex="1">
                    <mxGeometry y="182" width="180" height="26" as="geometry"/>
                </mxCell>
                <mxCell id="-DWRIGboLSZwD6kZoOFh-12" value="" style="line;strokeWidth=1;fillColor=none;align=left;verticalAlign=middle;spacingTop=-1;spacingLeft=3;spacingRight=3;rotatable=0;labelPosition=right;points=[];portConstraint=eastwest;strokeColor=inherit;" parent="-DWRIGboLSZwD6kZoOFh-1" vertex="1">
                    <mxGeometry y="208" width="180" height="8" as="geometry"/>
                </mxCell>
                <mxCell id="g4L_jA9QiXiYjec4vCly-5" value="- student?: Student" style="text;strokeColor=none;fillColor=none;align=left;verticalAlign=top;spacingLeft=4;spacingRight=4;overflow=hidden;rotatable=0;points=[[0,0.5],[1,0.5]];portConstraint=eastwest;" parent="-DWRIGboLSZwD6kZoOFh-1" vertex="1">
                    <mxGeometry y="216" width="180" height="26" as="geometry"/>
                </mxCell>
                <mxCell id="-DWRIGboLSZwD6kZoOFh-8" value="- classroom: Classroom[]" style="text;strokeColor=none;fillColor=none;align=left;verticalAlign=top;spacingLeft=4;spacingRight=4;overflow=hidden;rotatable=0;points=[[0,0.5],[1,0.5]];portConstraint=eastwest;" parent="-DWRIGboLSZwD6kZoOFh-1" vertex="1">
                    <mxGeometry y="242" width="180" height="26" as="geometry"/>
                </mxCell>
                <mxCell id="tpuzLj_R7ABDwXsxG5K2-35" value="- posts: Posts[]" style="text;strokeColor=none;fillColor=none;align=left;verticalAlign=top;spacingLeft=4;spacingRight=4;overflow=hidden;rotatable=0;points=[[0,0.5],[1,0.5]];portConstraint=eastwest;" parent="-DWRIGboLSZwD6kZoOFh-1" vertex="1">
                    <mxGeometry y="268" width="180" height="26" as="geometry"/>
                </mxCell>
                <mxCell id="VRK7nQ348HEeoWnxs1P9-75" value="- received: Message[]" style="text;strokeColor=none;fillColor=none;align=left;verticalAlign=top;spacingLeft=4;spacingRight=4;overflow=hidden;rotatable=0;points=[[0,0.5],[1,0.5]];portConstraint=eastwest;" parent="-DWRIGboLSZwD6kZoOFh-1" vertex="1">
                    <mxGeometry y="294" width="180" height="26" as="geometry"/>
                </mxCell>
                <mxCell id="VRK7nQ348HEeoWnxs1P9-74" value="- sent: Message[]" style="text;strokeColor=none;fillColor=none;align=left;verticalAlign=top;spacingLeft=4;spacingRight=4;overflow=hidden;rotatable=0;points=[[0,0.5],[1,0.5]];portConstraint=eastwest;" parent="-DWRIGboLSZwD6kZoOFh-1" vertex="1">
                    <mxGeometry y="320" width="180" height="26" as="geometry"/>
                </mxCell>
                <mxCell id="g4L_jA9QiXiYjec4vCly-1" value="Student" style="swimlane;fontStyle=0;childLayout=stackLayout;horizontal=1;startSize=26;fillColor=none;horizontalStack=0;resizeParent=1;resizeParentMax=0;resizeLast=0;collapsible=1;marginBottom=0;whiteSpace=wrap;html=1;" parent="1" vertex="1">
                    <mxGeometry x="-589.86" y="294" width="190" height="182" as="geometry"/>
                </mxCell>
                <mxCell id="g4L_jA9QiXiYjec4vCly-2" value="+ user: User" style="text;strokeColor=none;fillColor=none;align=left;verticalAlign=top;spacingLeft=4;spacingRight=4;overflow=hidden;rotatable=0;points=[[0,0.5],[1,0.5]];portConstraint=eastwest;whiteSpace=wrap;html=1;" parent="g4L_jA9QiXiYjec4vCly-1" vertex="1">
                    <mxGeometry y="26" width="190" height="26" as="geometry"/>
                </mxCell>
                <mxCell id="g4L_jA9QiXiYjec4vCly-7" value="+ serie: Serie" style="text;strokeColor=none;fillColor=none;align=left;verticalAlign=top;spacingLeft=4;spacingRight=4;overflow=hidden;rotatable=0;points=[[0,0.5],[1,0.5]];portConstraint=eastwest;" parent="g4L_jA9QiXiYjec4vCly-1" vertex="1">
                    <mxGeometry y="52" width="190" height="26" as="geometry"/>
                </mxCell>
                <mxCell id="g4L_jA9QiXiYjec4vCly-8" value="+ scolarshipValue: float" style="text;strokeColor=none;fillColor=none;align=left;verticalAlign=top;spacingLeft=4;spacingRight=4;overflow=hidden;rotatable=0;points=[[0,0.5],[1,0.5]];portConstraint=eastwest;" parent="g4L_jA9QiXiYjec4vCly-1" vertex="1">
                    <mxGeometry y="78" width="190" height="26" as="geometry"/>
                </mxCell>
                <mxCell id="g4L_jA9QiXiYjec4vCly-10" value="- achievements: Achievement[]" style="text;strokeColor=none;fillColor=none;align=left;verticalAlign=top;spacingLeft=4;spacingRight=4;overflow=hidden;rotatable=0;points=[[0,0.5],[1,0.5]];portConstraint=eastwest;" parent="g4L_jA9QiXiYjec4vCly-1" vertex="1">
                    <mxGeometry y="104" width="190" height="26" as="geometry"/>
                </mxCell>
                <mxCell id="g4L_jA9QiXiYjec4vCly-11" value="+ responsibleName: string" style="text;strokeColor=none;fillColor=none;align=left;verticalAlign=top;spacingLeft=4;spacingRight=4;overflow=hidden;rotatable=0;points=[[0,0.5],[1,0.5]];portConstraint=eastwest;" parent="g4L_jA9QiXiYjec4vCly-1" vertex="1">
                    <mxGeometry y="130" width="190" height="26" as="geometry"/>
                </mxCell>
                <mxCell id="g4L_jA9QiXiYjec4vCly-12" value="+ responsibleNumber: string" style="text;strokeColor=none;fillColor=none;align=left;verticalAlign=top;spacingLeft=4;spacingRight=4;overflow=hidden;rotatable=0;points=[[0,0.5],[1,0.5]];portConstraint=eastwest;" parent="g4L_jA9QiXiYjec4vCly-1" vertex="1">
                    <mxGeometry y="156" width="190" height="26" as="geometry"/>
                </mxCell>
                <mxCell id="g4L_jA9QiXiYjec4vCly-6" style="edgeStyle=orthogonalEdgeStyle;rounded=0;orthogonalLoop=1;jettySize=auto;html=1;exitX=0;exitY=0.5;exitDx=0;exitDy=0;entryX=1;entryY=0.5;entryDx=0;entryDy=0;startArrow=classic;startFill=1;" parent="1" source="g4L_jA9QiXiYjec4vCly-5" target="g4L_jA9QiXiYjec4vCly-2" edge="1">
                    <mxGeometry relative="1" as="geometry"/>
                </mxCell>
                <mxCell id="g4L_jA9QiXiYjec4vCly-13" value="Achievement" style="swimlane;fontStyle=0;childLayout=stackLayout;horizontal=1;startSize=26;fillColor=none;horizontalStack=0;resizeParent=1;resizeParentMax=0;resizeLast=0;collapsible=1;marginBottom=0;" parent="1" vertex="1">
                    <mxGeometry x="-589.86" y="534" width="169.72" height="286" as="geometry"/>
                </mxCell>
                <mxCell id="g4L_jA9QiXiYjec4vCly-23" value="+ student: Student" style="text;strokeColor=none;fillColor=none;align=left;verticalAlign=top;spacingLeft=4;spacingRight=4;overflow=hidden;rotatable=0;points=[[0,0.5],[1,0.5]];portConstraint=eastwest;" parent="g4L_jA9QiXiYjec4vCly-13" vertex="1">
                    <mxGeometry y="26" width="169.72" height="26" as="geometry"/>
                </mxCell>
                <mxCell id="g4L_jA9QiXiYjec4vCly-14" value="+ type: AchievementType" style="text;strokeColor=none;fillColor=none;align=left;verticalAlign=top;spacingLeft=4;spacingRight=4;overflow=hidden;rotatable=0;points=[[0,0.5],[1,0.5]];portConstraint=eastwest;" parent="g4L_jA9QiXiYjec4vCly-13" vertex="1">
                    <mxGeometry y="52" width="169.72" height="26" as="geometry"/>
                </mxCell>
                <mxCell id="g4L_jA9QiXiYjec4vCly-15" value="+ name: string" style="text;strokeColor=none;fillColor=none;align=left;verticalAlign=top;spacingLeft=4;spacingRight=4;overflow=hidden;rotatable=0;points=[[0,0.5],[1,0.5]];portConstraint=eastwest;" parent="g4L_jA9QiXiYjec4vCly-13" vertex="1">
                    <mxGeometry y="78" width="169.72" height="26" as="geometry"/>
                </mxCell>
                <mxCell id="g4L_jA9QiXiYjec4vCly-16" value="+ olympicAbbrev: string" style="text;strokeColor=none;fillColor=none;align=left;verticalAlign=top;spacingLeft=4;spacingRight=4;overflow=hidden;rotatable=0;points=[[0,0.5],[1,0.5]];portConstraint=eastwest;" parent="g4L_jA9QiXiYjec4vCly-13" vertex="1">
                    <mxGeometry y="104" width="169.72" height="26" as="geometry"/>
                </mxCell>
                <mxCell id="g4L_jA9QiXiYjec4vCly-17" value="+ year: integer" style="text;strokeColor=none;fillColor=none;align=left;verticalAlign=top;spacingLeft=4;spacingRight=4;overflow=hidden;rotatable=0;points=[[0,0.5],[1,0.5]];portConstraint=eastwest;" parent="g4L_jA9QiXiYjec4vCly-13" vertex="1">
                    <mxGeometry y="130" width="169.72" height="26" as="geometry"/>
                </mxCell>
                <mxCell id="g4L_jA9QiXiYjec4vCly-18" value="+ medal: MedalType" style="text;strokeColor=none;fillColor=none;align=left;verticalAlign=top;spacingLeft=4;spacingRight=4;overflow=hidden;rotatable=0;points=[[0,0.5],[1,0.5]];portConstraint=eastwest;" parent="g4L_jA9QiXiYjec4vCly-13" vertex="1">
                    <mxGeometry y="156" width="169.72" height="26" as="geometry"/>
                </mxCell>
                <mxCell id="g4L_jA9QiXiYjec4vCly-19" value="+ link: string" style="text;strokeColor=none;fillColor=none;align=left;verticalAlign=top;spacingLeft=4;spacingRight=4;overflow=hidden;rotatable=0;points=[[0,0.5],[1,0.5]];portConstraint=eastwest;" parent="g4L_jA9QiXiYjec4vCly-13" vertex="1">
                    <mxGeometry y="182" width="169.72" height="26" as="geometry"/>
                </mxCell>
                <mxCell id="g4L_jA9QiXiYjec4vCly-20" value="+ otherInfo string" style="text;strokeColor=none;fillColor=none;align=left;verticalAlign=top;spacingLeft=4;spacingRight=4;overflow=hidden;rotatable=0;points=[[0,0.5],[1,0.5]];portConstraint=eastwest;" parent="g4L_jA9QiXiYjec4vCly-13" vertex="1">
                    <mxGeometry y="208" width="169.72" height="26" as="geometry"/>
                </mxCell>
                <mxCell id="g4L_jA9QiXiYjec4vCly-21" value="+ status: AchievementStatus" style="text;strokeColor=none;fillColor=none;align=left;verticalAlign=top;spacingLeft=4;spacingRight=4;overflow=hidden;rotatable=0;points=[[0,0.5],[1,0.5]];portConstraint=eastwest;" parent="g4L_jA9QiXiYjec4vCly-13" vertex="1">
                    <mxGeometry y="234" width="169.72" height="26" as="geometry"/>
                </mxCell>
                <mxCell id="g4L_jA9QiXiYjec4vCly-22" value="- images : Attach[ ]" style="text;strokeColor=none;fillColor=none;align=left;verticalAlign=top;spacingLeft=4;spacingRight=4;overflow=hidden;rotatable=0;points=[[0,0.5],[1,0.5]];portConstraint=eastwest;" parent="g4L_jA9QiXiYjec4vCly-13" vertex="1">
                    <mxGeometry y="260" width="169.72" height="26" as="geometry"/>
                </mxCell>
                <mxCell id="g4L_jA9QiXiYjec4vCly-24" value="&lt;&lt;Enumeration&gt;&gt;&#10;AchievementType" style="swimlane;fontStyle=0;childLayout=stackLayout;horizontal=1;startSize=26;fillColor=none;horizontalStack=0;resizeParent=1;resizeParentMax=0;resizeLast=0;collapsible=1;marginBottom=0;" parent="1" vertex="1">
                    <mxGeometry x="-810" y="485" width="140" height="78" as="geometry">
                        <mxRectangle x="260" y="10" width="140" height="40" as="alternateBounds"/>
                    </mxGeometry>
                </mxCell>
                <mxCell id="g4L_jA9QiXiYjec4vCly-25" value="+ Olympic Medal&#10;" style="text;strokeColor=none;fillColor=none;align=left;verticalAlign=top;spacingLeft=4;spacingRight=4;overflow=hidden;rotatable=0;points=[[0,0.5],[1,0.5]];portConstraint=eastwest;" parent="g4L_jA9QiXiYjec4vCly-24" vertex="1">
                    <mxGeometry y="26" width="140" height="26" as="geometry"/>
                </mxCell>
                <mxCell id="g4L_jA9QiXiYjec4vCly-26" value="+ Certificate" style="text;strokeColor=none;fillColor=none;align=left;verticalAlign=top;spacingLeft=4;spacingRight=4;overflow=hidden;rotatable=0;points=[[0,0.5],[1,0.5]];portConstraint=eastwest;" parent="g4L_jA9QiXiYjec4vCly-24" vertex="1">
                    <mxGeometry y="52" width="140" height="26" as="geometry"/>
                </mxCell>
                <mxCell id="g4L_jA9QiXiYjec4vCly-27" value="&lt;&lt;Enumeration&gt;&gt;&#10;MedalType" style="swimlane;fontStyle=0;childLayout=stackLayout;horizontal=1;startSize=26;fillColor=none;horizontalStack=0;resizeParent=1;resizeParentMax=0;resizeLast=0;collapsible=1;marginBottom=0;" parent="1" vertex="1">
                    <mxGeometry x="-810" y="603" width="140" height="130" as="geometry">
                        <mxRectangle x="260" y="10" width="140" height="40" as="alternateBounds"/>
                    </mxGeometry>
                </mxCell>
                <mxCell id="g4L_jA9QiXiYjec4vCly-28" value="+ Gold&#10;" style="text;strokeColor=none;fillColor=none;align=left;verticalAlign=top;spacingLeft=4;spacingRight=4;overflow=hidden;rotatable=0;points=[[0,0.5],[1,0.5]];portConstraint=eastwest;" parent="g4L_jA9QiXiYjec4vCly-27" vertex="1">
                    <mxGeometry y="26" width="140" height="26" as="geometry"/>
                </mxCell>
                <mxCell id="g4L_jA9QiXiYjec4vCly-29" value="+ Silver" style="text;strokeColor=none;fillColor=none;align=left;verticalAlign=top;spacingLeft=4;spacingRight=4;overflow=hidden;rotatable=0;points=[[0,0.5],[1,0.5]];portConstraint=eastwest;" parent="g4L_jA9QiXiYjec4vCly-27" vertex="1">
                    <mxGeometry y="52" width="140" height="26" as="geometry"/>
                </mxCell>
                <mxCell id="g4L_jA9QiXiYjec4vCly-30" value="+ Bronze" style="text;strokeColor=none;fillColor=none;align=left;verticalAlign=top;spacingLeft=4;spacingRight=4;overflow=hidden;rotatable=0;points=[[0,0.5],[1,0.5]];portConstraint=eastwest;" parent="g4L_jA9QiXiYjec4vCly-27" vertex="1">
                    <mxGeometry y="78" width="140" height="26" as="geometry"/>
                </mxCell>
                <mxCell id="g4L_jA9QiXiYjec4vCly-31" value="+ Participation" style="text;strokeColor=none;fillColor=none;align=left;verticalAlign=top;spacingLeft=4;spacingRight=4;overflow=hidden;rotatable=0;points=[[0,0.5],[1,0.5]];portConstraint=eastwest;" parent="g4L_jA9QiXiYjec4vCly-27" vertex="1">
                    <mxGeometry y="104" width="140" height="26" as="geometry"/>
                </mxCell>
                <mxCell id="g4L_jA9QiXiYjec4vCly-32" value="&lt;&lt;Enumeration&gt;&gt;&#10;AchievementStatus" style="swimlane;fontStyle=0;childLayout=stackLayout;horizontal=1;startSize=26;fillColor=none;horizontalStack=0;resizeParent=1;resizeParentMax=0;resizeLast=0;collapsible=1;marginBottom=0;" parent="1" vertex="1">
                    <mxGeometry x="-810" y="765" width="140" height="104" as="geometry">
                        <mxRectangle x="260" y="10" width="140" height="40" as="alternateBounds"/>
                    </mxGeometry>
                </mxCell>
                <mxCell id="g4L_jA9QiXiYjec4vCly-33" value="+ Ready&#10;" style="text;strokeColor=none;fillColor=none;align=left;verticalAlign=top;spacingLeft=4;spacingRight=4;overflow=hidden;rotatable=0;points=[[0,0.5],[1,0.5]];portConstraint=eastwest;" parent="g4L_jA9QiXiYjec4vCly-32" vertex="1">
                    <mxGeometry y="26" width="140" height="26" as="geometry"/>
                </mxCell>
                <mxCell id="g4L_jA9QiXiYjec4vCly-34" value="+ Pending" style="text;strokeColor=none;fillColor=none;align=left;verticalAlign=top;spacingLeft=4;spacingRight=4;overflow=hidden;rotatable=0;points=[[0,0.5],[1,0.5]];portConstraint=eastwest;" parent="g4L_jA9QiXiYjec4vCly-32" vertex="1">
                    <mxGeometry y="52" width="140" height="26" as="geometry"/>
                </mxCell>
                <mxCell id="g4L_jA9QiXiYjec4vCly-35" value="+ SoftDelete" style="text;strokeColor=none;fillColor=none;align=left;verticalAlign=top;spacingLeft=4;spacingRight=4;overflow=hidden;rotatable=0;points=[[0,0.5],[1,0.5]];portConstraint=eastwest;" parent="g4L_jA9QiXiYjec4vCly-32" vertex="1">
                    <mxGeometry y="78" width="140" height="26" as="geometry"/>
                </mxCell>
                <mxCell id="g4L_jA9QiXiYjec4vCly-36" style="edgeStyle=orthogonalEdgeStyle;rounded=0;orthogonalLoop=1;jettySize=auto;html=1;exitX=0;exitY=0.5;exitDx=0;exitDy=0;entryX=1;entryY=0.25;entryDx=0;entryDy=0;" parent="1" source="g4L_jA9QiXiYjec4vCly-14" target="g4L_jA9QiXiYjec4vCly-24" edge="1">
                    <mxGeometry relative="1" as="geometry">
                        <Array as="points">
                            <mxPoint x="-630" y="599"/>
                            <mxPoint x="-630" y="505"/>
                        </Array>
                    </mxGeometry>
                </mxCell>
                <mxCell id="g4L_jA9QiXiYjec4vCly-37" style="edgeStyle=orthogonalEdgeStyle;rounded=0;orthogonalLoop=1;jettySize=auto;html=1;exitX=0;exitY=0.5;exitDx=0;exitDy=0;entryX=1.002;entryY=0.107;entryDx=0;entryDy=0;entryPerimeter=0;" parent="1" source="g4L_jA9QiXiYjec4vCly-18" target="g4L_jA9QiXiYjec4vCly-27" edge="1">
                    <mxGeometry relative="1" as="geometry"/>
                </mxCell>
                <mxCell id="g4L_jA9QiXiYjec4vCly-38" style="edgeStyle=orthogonalEdgeStyle;rounded=0;orthogonalLoop=1;jettySize=auto;html=1;exitX=0;exitY=0.5;exitDx=0;exitDy=0;entryX=1.027;entryY=0.155;entryDx=0;entryDy=0;entryPerimeter=0;" parent="1" source="g4L_jA9QiXiYjec4vCly-21" target="g4L_jA9QiXiYjec4vCly-32" edge="1">
                    <mxGeometry relative="1" as="geometry"/>
                </mxCell>
                <mxCell id="g4L_jA9QiXiYjec4vCly-39" style="edgeStyle=orthogonalEdgeStyle;rounded=0;orthogonalLoop=1;jettySize=auto;html=1;exitX=1;exitY=0.5;exitDx=0;exitDy=0;entryX=1.001;entryY=0.679;entryDx=0;entryDy=0;entryPerimeter=0;startArrow=classic;startFill=1;" parent="1" source="g4L_jA9QiXiYjec4vCly-10" target="g4L_jA9QiXiYjec4vCly-23" edge="1">
                    <mxGeometry relative="1" as="geometry">
                        <Array as="points">
                            <mxPoint x="-380" y="411"/>
                            <mxPoint x="-380" y="578"/>
                        </Array>
                    </mxGeometry>
                </mxCell>
                <mxCell id="tpuzLj_R7ABDwXsxG5K2-6" value="Classroom" style="swimlane;fontStyle=0;childLayout=stackLayout;horizontal=1;startSize=26;fillColor=none;horizontalStack=0;resizeParent=1;resizeParentMax=0;resizeLast=0;collapsible=1;marginBottom=0;" parent="1" vertex="1">
                    <mxGeometry x="170" y="198" width="180" height="156" as="geometry"/>
                </mxCell>
                <mxCell id="tpuzLj_R7ABDwXsxG5K2-7" value="+ name: string" style="text;strokeColor=none;fillColor=none;align=left;verticalAlign=top;spacingLeft=4;spacingRight=4;overflow=hidden;rotatable=0;points=[[0,0.5],[1,0.5]];portConstraint=eastwest;" parent="tpuzLj_R7ABDwXsxG5K2-6" vertex="1">
                    <mxGeometry y="26" width="180" height="26" as="geometry"/>
                </mxCell>
                <mxCell id="hUaAKtjsCZO_0fCoCIE2-10" value="+ thumbnail: Attach" style="text;strokeColor=none;fillColor=none;align=left;verticalAlign=top;spacingLeft=4;spacingRight=4;overflow=hidden;rotatable=0;points=[[0,0.5],[1,0.5]];portConstraint=eastwest;" parent="tpuzLj_R7ABDwXsxG5K2-6" vertex="1">
                    <mxGeometry y="52" width="180" height="26" as="geometry"/>
                </mxCell>
                <mxCell id="tpuzLj_R7ABDwXsxG5K2-8" value="- members: User[]" style="text;strokeColor=none;fillColor=none;align=left;verticalAlign=top;spacingLeft=4;spacingRight=4;overflow=hidden;rotatable=0;points=[[0,0.5],[1,0.5]];portConstraint=eastwest;" parent="tpuzLj_R7ABDwXsxG5K2-6" vertex="1">
                    <mxGeometry y="78" width="180" height="26" as="geometry"/>
                </mxCell>
                <mxCell id="tpuzLj_R7ABDwXsxG5K2-9" value="- posts: Post[]" style="text;strokeColor=none;fillColor=none;align=left;verticalAlign=top;spacingLeft=4;spacingRight=4;overflow=hidden;rotatable=0;points=[[0,0.5],[1,0.5]];portConstraint=eastwest;" parent="tpuzLj_R7ABDwXsxG5K2-6" vertex="1">
                    <mxGeometry y="104" width="180" height="26" as="geometry"/>
                </mxCell>
                <mxCell id="CfqOVZ3k4p2RBuNGH9BN-28" value="- activityGroups: ActivityGroup[]" style="text;strokeColor=none;fillColor=none;align=left;verticalAlign=top;spacingLeft=4;spacingRight=4;overflow=hidden;rotatable=0;points=[[0,0.5],[1,0.5]];portConstraint=eastwest;" parent="tpuzLj_R7ABDwXsxG5K2-6" vertex="1">
                    <mxGeometry y="130" width="180" height="26" as="geometry"/>
                </mxCell>
                <mxCell id="tpuzLj_R7ABDwXsxG5K2-10" value="Enrollment" style="swimlane;fontStyle=0;childLayout=stackLayout;horizontal=1;startSize=26;fillColor=none;horizontalStack=0;resizeParent=1;resizeParentMax=0;resizeLast=0;collapsible=1;marginBottom=0;whiteSpace=wrap;html=1;" parent="1" vertex="1">
                    <mxGeometry x="-50" y="214" width="140" height="104" as="geometry"/>
                </mxCell>
                <mxCell id="tpuzLj_R7ABDwXsxG5K2-11" value="+ user: User" style="text;strokeColor=none;fillColor=none;align=left;verticalAlign=top;spacingLeft=4;spacingRight=4;overflow=hidden;rotatable=0;points=[[0,0.5],[1,0.5]];portConstraint=eastwest;whiteSpace=wrap;html=1;" parent="tpuzLj_R7ABDwXsxG5K2-10" vertex="1">
                    <mxGeometry y="26" width="140" height="26" as="geometry"/>
                </mxCell>
                <mxCell id="tpuzLj_R7ABDwXsxG5K2-12" value="+ classroom: Classroom" style="text;strokeColor=none;fillColor=none;align=left;verticalAlign=top;spacingLeft=4;spacingRight=4;overflow=hidden;rotatable=0;points=[[0,0.5],[1,0.5]];portConstraint=eastwest;whiteSpace=wrap;html=1;" parent="tpuzLj_R7ABDwXsxG5K2-10" vertex="1">
                    <mxGeometry y="52" width="140" height="26" as="geometry"/>
                </mxCell>
                <mxCell id="tpuzLj_R7ABDwXsxG5K2-13" value="+ role: Role" style="text;strokeColor=none;fillColor=none;align=left;verticalAlign=top;spacingLeft=4;spacingRight=4;overflow=hidden;rotatable=0;points=[[0,0.5],[1,0.5]];portConstraint=eastwest;whiteSpace=wrap;html=1;" parent="tpuzLj_R7ABDwXsxG5K2-10" vertex="1">
                    <mxGeometry y="78" width="140" height="26" as="geometry"/>
                </mxCell>
                <mxCell id="tpuzLj_R7ABDwXsxG5K2-14" style="edgeStyle=orthogonalEdgeStyle;rounded=0;orthogonalLoop=1;jettySize=auto;html=1;entryX=1;entryY=0.5;entryDx=0;entryDy=0;startArrow=classic;startFill=1;" parent="1" source="tpuzLj_R7ABDwXsxG5K2-11" target="-DWRIGboLSZwD6kZoOFh-8" edge="1">
                    <mxGeometry relative="1" as="geometry">
                        <Array as="points">
                            <mxPoint x="-90" y="253"/>
                            <mxPoint x="-90" y="599"/>
                        </Array>
                    </mxGeometry>
                </mxCell>
                <mxCell id="hUaAKtjsCZO_0fCoCIE2-1" value="Serie " style="swimlane;fontStyle=0;childLayout=stackLayout;horizontal=1;startSize=26;fillColor=none;horizontalStack=0;resizeParent=1;resizeParentMax=0;resizeLast=0;collapsible=1;marginBottom=0;" parent="1" vertex="1">
                    <mxGeometry x="-810" y="354" width="140" height="78" as="geometry">
                        <mxRectangle x="260" y="10" width="140" height="40" as="alternateBounds"/>
                    </mxGeometry>
                </mxCell>
                <mxCell id="hUaAKtjsCZO_0fCoCIE2-2" value="- students: Student[]" style="text;strokeColor=none;fillColor=none;align=left;verticalAlign=top;spacingLeft=4;spacingRight=4;overflow=hidden;rotatable=0;points=[[0,0.5],[1,0.5]];portConstraint=eastwest;" parent="hUaAKtjsCZO_0fCoCIE2-1" vertex="1">
                    <mxGeometry y="26" width="140" height="26" as="geometry"/>
                </mxCell>
                <mxCell id="hUaAKtjsCZO_0fCoCIE2-5" value="+ name: string" style="text;strokeColor=none;fillColor=none;align=left;verticalAlign=top;spacingLeft=4;spacingRight=4;overflow=hidden;rotatable=0;points=[[0,0.5],[1,0.5]];portConstraint=eastwest;" parent="hUaAKtjsCZO_0fCoCIE2-1" vertex="1">
                    <mxGeometry y="52" width="140" height="26" as="geometry"/>
                </mxCell>
                <mxCell id="tpuzLj_R7ABDwXsxG5K2-16" value="Post" style="swimlane;fontStyle=0;childLayout=stackLayout;horizontal=1;startSize=26;fillColor=none;horizontalStack=0;resizeParent=1;resizeParentMax=0;resizeLast=0;collapsible=1;marginBottom=0;" parent="1" vertex="1">
                    <mxGeometry x="250" y="414" width="150" height="312" as="geometry"/>
                </mxCell>
                <mxCell id="tpuzLj_R7ABDwXsxG5K2-25" value="+ classroom: Classroom" style="text;strokeColor=none;fillColor=none;align=left;verticalAlign=top;spacingLeft=4;spacingRight=4;overflow=hidden;rotatable=0;points=[[0,0.5],[1,0.5]];portConstraint=eastwest;whiteSpace=wrap;html=1;" parent="tpuzLj_R7ABDwXsxG5K2-16" vertex="1">
                    <mxGeometry y="26" width="150" height="26" as="geometry"/>
                </mxCell>
                <mxCell id="tpuzLj_R7ABDwXsxG5K2-17" value="+ title: string" style="text;strokeColor=none;fillColor=none;align=left;verticalAlign=top;spacingLeft=4;spacingRight=4;overflow=hidden;rotatable=0;points=[[0,0.5],[1,0.5]];portConstraint=eastwest;" parent="tpuzLj_R7ABDwXsxG5K2-16" vertex="1">
                    <mxGeometry y="52" width="150" height="26" as="geometry"/>
                </mxCell>
                <mxCell id="tpuzLj_R7ABDwXsxG5K2-18" value="+ content: string" style="text;strokeColor=none;fillColor=none;align=left;verticalAlign=top;spacingLeft=4;spacingRight=4;overflow=hidden;rotatable=0;points=[[0,0.5],[1,0.5]];portConstraint=eastwest;" parent="tpuzLj_R7ABDwXsxG5K2-16" vertex="1">
                    <mxGeometry y="78" width="150" height="26" as="geometry"/>
                </mxCell>
                <mxCell id="CfqOVZ3k4p2RBuNGH9BN-10" value="- frequency: Frequency[]" style="text;strokeColor=none;fillColor=none;align=left;verticalAlign=top;spacingLeft=4;spacingRight=4;overflow=hidden;rotatable=0;points=[[0,0.5],[1,0.5]];portConstraint=eastwest;" parent="tpuzLj_R7ABDwXsxG5K2-16" vertex="1">
                    <mxGeometry y="104" width="150" height="26" as="geometry"/>
                </mxCell>
                <mxCell id="VRK7nQ348HEeoWnxs1P9-36" value="+ type: PostType" style="text;strokeColor=none;fillColor=none;align=left;verticalAlign=top;spacingLeft=4;spacingRight=4;overflow=hidden;rotatable=0;points=[[0,0.5],[1,0.5]];portConstraint=eastwest;" parent="tpuzLj_R7ABDwXsxG5K2-16" vertex="1">
                    <mxGeometry y="130" width="150" height="26" as="geometry"/>
                </mxCell>
                <mxCell id="hUaAKtjsCZO_0fCoCIE2-7" value="- attachments: Attach[]" style="text;strokeColor=none;fillColor=none;align=left;verticalAlign=top;spacingLeft=4;spacingRight=4;overflow=hidden;rotatable=0;points=[[0,0.5],[1,0.5]];portConstraint=eastwest;" parent="tpuzLj_R7ABDwXsxG5K2-16" vertex="1">
                    <mxGeometry y="156" width="150" height="26" as="geometry"/>
                </mxCell>
                <mxCell id="VRK7nQ348HEeoWnxs1P9-31" value="- activity?: Activity" style="text;strokeColor=none;fillColor=none;align=left;verticalAlign=top;spacingLeft=4;spacingRight=4;overflow=hidden;rotatable=0;points=[[0,0.5],[1,0.5]];portConstraint=eastwest;" parent="tpuzLj_R7ABDwXsxG5K2-16" vertex="1">
                    <mxGeometry y="182" width="150" height="26" as="geometry"/>
                </mxCell>
                <mxCell id="VRK7nQ348HEeoWnxs1P9-37" value="- response?: Response" style="text;strokeColor=none;fillColor=none;align=left;verticalAlign=top;spacingLeft=4;spacingRight=4;overflow=hidden;rotatable=0;points=[[0,0.5],[1,0.5]];portConstraint=eastwest;" parent="tpuzLj_R7ABDwXsxG5K2-16" vertex="1">
                    <mxGeometry y="208" width="150" height="26" as="geometry"/>
                </mxCell>
                <mxCell id="VRK7nQ348HEeoWnxs1P9-48" value="- responses: Response[]" style="text;strokeColor=none;fillColor=none;align=left;verticalAlign=top;spacingLeft=4;spacingRight=4;overflow=hidden;rotatable=0;points=[[0,0.5],[1,0.5]];portConstraint=eastwest;" parent="tpuzLj_R7ABDwXsxG5K2-16" vertex="1">
                    <mxGeometry y="234" width="150" height="26" as="geometry"/>
                </mxCell>
                <mxCell id="VRK7nQ348HEeoWnxs1P9-57" value="- coments: Comment[]" style="text;strokeColor=none;fillColor=none;align=left;verticalAlign=top;spacingLeft=4;spacingRight=4;overflow=hidden;rotatable=0;points=[[0,0.5],[1,0.5]];portConstraint=eastwest;" parent="tpuzLj_R7ABDwXsxG5K2-16" vertex="1">
                    <mxGeometry y="260" width="150" height="26" as="geometry"/>
                </mxCell>
                <mxCell id="VRK7nQ348HEeoWnxs1P9-80" value="- messages: Messages[]" style="text;strokeColor=none;fillColor=none;align=left;verticalAlign=top;spacingLeft=4;spacingRight=4;overflow=hidden;rotatable=0;points=[[0,0.5],[1,0.5]];portConstraint=eastwest;" parent="tpuzLj_R7ABDwXsxG5K2-16" vertex="1">
                    <mxGeometry y="286" width="150" height="26" as="geometry"/>
                </mxCell>
                <mxCell id="tpuzLj_R7ABDwXsxG5K2-27" style="edgeStyle=orthogonalEdgeStyle;rounded=0;orthogonalLoop=1;jettySize=auto;html=1;exitX=0;exitY=0.5;exitDx=0;exitDy=0;entryX=1;entryY=0.5;entryDx=0;entryDy=0;startArrow=classic;startFill=1;" parent="1" source="tpuzLj_R7ABDwXsxG5K2-25" target="tpuzLj_R7ABDwXsxG5K2-9" edge="1">
                    <mxGeometry relative="1" as="geometry">
                        <Array as="points">
                            <mxPoint x="230" y="453"/>
                            <mxPoint x="230" y="394"/>
                            <mxPoint x="370" y="394"/>
                            <mxPoint x="370" y="315"/>
                        </Array>
                    </mxGeometry>
                </mxCell>
                <mxCell id="tpuzLj_R7ABDwXsxG5K2-15" style="edgeStyle=orthogonalEdgeStyle;rounded=0;orthogonalLoop=1;jettySize=auto;html=1;exitX=0;exitY=0.5;exitDx=0;exitDy=0;startArrow=classic;startFill=1;" parent="1" source="tpuzLj_R7ABDwXsxG5K2-8" target="tpuzLj_R7ABDwXsxG5K2-12" edge="1">
                    <mxGeometry relative="1" as="geometry"/>
                </mxCell>
                <mxCell id="VRK7nQ348HEeoWnxs1P9-5" value="Activity" style="swimlane;fontStyle=0;childLayout=stackLayout;horizontal=1;startSize=26;fillColor=none;horizontalStack=0;resizeParent=1;resizeParentMax=0;resizeLast=0;collapsible=1;marginBottom=0;" parent="1" vertex="1">
                    <mxGeometry x="-40" y="544" width="190" height="234" as="geometry"/>
                </mxCell>
                <mxCell id="VRK7nQ348HEeoWnxs1P9-33" value="+ post: Post" style="text;strokeColor=none;fillColor=none;align=left;verticalAlign=top;spacingLeft=4;spacingRight=4;overflow=hidden;rotatable=0;points=[[0,0.5],[1,0.5]];portConstraint=eastwest;whiteSpace=wrap;html=1;" parent="VRK7nQ348HEeoWnxs1P9-5" vertex="1">
                    <mxGeometry y="26" width="190" height="26" as="geometry"/>
                </mxCell>
                <mxCell id="CfqOVZ3k4p2RBuNGH9BN-31" value="+ activityGroup: ActivityGroup" style="text;strokeColor=none;fillColor=none;align=left;verticalAlign=top;spacingLeft=4;spacingRight=4;overflow=hidden;rotatable=0;points=[[0,0.5],[1,0.5]];portConstraint=eastwest;whiteSpace=wrap;html=1;" parent="VRK7nQ348HEeoWnxs1P9-5" vertex="1">
                    <mxGeometry y="52" width="190" height="26" as="geometry"/>
                </mxCell>
                <mxCell id="VRK7nQ348HEeoWnxs1P9-35" value="+ startDate?: DateTime" style="text;strokeColor=none;fillColor=none;align=left;verticalAlign=top;spacingLeft=4;spacingRight=4;overflow=hidden;rotatable=0;points=[[0,0.5],[1,0.5]];portConstraint=eastwest;" parent="VRK7nQ348HEeoWnxs1P9-5" vertex="1">
                    <mxGeometry y="78" width="190" height="26" as="geometry"/>
                </mxCell>
                <mxCell id="VRK7nQ348HEeoWnxs1P9-11" value="+ endDate?: DateTime" style="text;strokeColor=none;fillColor=none;align=left;verticalAlign=top;spacingLeft=4;spacingRight=4;overflow=hidden;rotatable=0;points=[[0,0.5],[1,0.5]];portConstraint=eastwest;" parent="VRK7nQ348HEeoWnxs1P9-5" vertex="1">
                    <mxGeometry y="104" width="190" height="26" as="geometry"/>
                </mxCell>
                <mxCell id="VRK7nQ348HEeoWnxs1P9-12" value="+ maxGrade?: float&#10;" style="text;strokeColor=none;fillColor=none;align=left;verticalAlign=top;spacingLeft=4;spacingRight=4;overflow=hidden;rotatable=0;points=[[0,0.5],[1,0.5]];portConstraint=eastwest;" parent="VRK7nQ348HEeoWnxs1P9-5" vertex="1">
                    <mxGeometry y="130" width="190" height="26" as="geometry"/>
                </mxCell>
                <mxCell id="VRK7nQ348HEeoWnxs1P9-3" value="+ linearCoefficient?: float" style="text;strokeColor=none;fillColor=none;align=left;verticalAlign=top;spacingLeft=4;spacingRight=4;overflow=hidden;rotatable=0;points=[[0,0.5],[1,0.5]];portConstraint=eastwest;" parent="VRK7nQ348HEeoWnxs1P9-5" vertex="1">
                    <mxGeometry y="156" width="190" height="26" as="geometry"/>
                </mxCell>
                <mxCell id="hUaAKtjsCZO_0fCoCIE2-9" value="+ angularCoefficient?: float" style="text;strokeColor=none;fillColor=none;align=left;verticalAlign=top;spacingLeft=4;spacingRight=4;overflow=hidden;rotatable=0;points=[[0,0.5],[1,0.5]];portConstraint=eastwest;" parent="VRK7nQ348HEeoWnxs1P9-5" vertex="1">
                    <mxGeometry y="182" width="190" height="26" as="geometry"/>
                </mxCell>
                <mxCell id="VRK7nQ348HEeoWnxs1P9-14" value="+ weight: float default 1&#10;" style="text;strokeColor=none;fillColor=none;align=left;verticalAlign=top;spacingLeft=4;spacingRight=4;overflow=hidden;rotatable=0;points=[[0,0.5],[1,0.5]];portConstraint=eastwest;" parent="VRK7nQ348HEeoWnxs1P9-5" vertex="1">
                    <mxGeometry y="208" width="190" height="26" as="geometry"/>
                </mxCell>
                <mxCell id="VRK7nQ348HEeoWnxs1P9-20" value="PostAttachment" style="swimlane;fontStyle=0;childLayout=stackLayout;horizontal=1;startSize=26;fillColor=none;horizontalStack=0;resizeParent=1;resizeParentMax=0;resizeLast=0;collapsible=1;marginBottom=0;whiteSpace=wrap;html=1;" parent="1" vertex="1">
                    <mxGeometry x="560" y="574" width="140" height="130" as="geometry"/>
                </mxCell>
                <mxCell id="VRK7nQ348HEeoWnxs1P9-21" value="+ post: Post" style="text;strokeColor=none;fillColor=none;align=left;verticalAlign=top;spacingLeft=4;spacingRight=4;overflow=hidden;rotatable=0;points=[[0,0.5],[1,0.5]];portConstraint=eastwest;whiteSpace=wrap;html=1;" parent="VRK7nQ348HEeoWnxs1P9-20" vertex="1">
                    <mxGeometry y="26" width="140" height="26" as="geometry"/>
                </mxCell>
                <mxCell id="VRK7nQ348HEeoWnxs1P9-22" value="+ name: string" style="text;strokeColor=none;fillColor=none;align=left;verticalAlign=top;spacingLeft=4;spacingRight=4;overflow=hidden;rotatable=0;points=[[0,0.5],[1,0.5]];portConstraint=eastwest;whiteSpace=wrap;html=1;" parent="VRK7nQ348HEeoWnxs1P9-20" vertex="1">
                    <mxGeometry y="52" width="140" height="26" as="geometry"/>
                </mxCell>
                <mxCell id="VRK7nQ348HEeoWnxs1P9-27" value="+ type: AttachtType" style="text;strokeColor=none;fillColor=none;align=left;verticalAlign=top;spacingLeft=4;spacingRight=4;overflow=hidden;rotatable=0;points=[[0,0.5],[1,0.5]];portConstraint=eastwest;whiteSpace=wrap;html=1;" parent="VRK7nQ348HEeoWnxs1P9-20" vertex="1">
                    <mxGeometry y="78" width="140" height="26" as="geometry"/>
                </mxCell>
                <mxCell id="VRK7nQ348HEeoWnxs1P9-23" value="+ metadata: string" style="text;strokeColor=none;fillColor=none;align=left;verticalAlign=top;spacingLeft=4;spacingRight=4;overflow=hidden;rotatable=0;points=[[0,0.5],[1,0.5]];portConstraint=eastwest;whiteSpace=wrap;html=1;" parent="VRK7nQ348HEeoWnxs1P9-20" vertex="1">
                    <mxGeometry y="104" width="140" height="26" as="geometry"/>
                </mxCell>
                <mxCell id="hUaAKtjsCZO_0fCoCIE2-12" value="&lt;&lt;Enumeration&gt;&gt;&#10;AttachType" style="swimlane;fontStyle=0;childLayout=stackLayout;horizontal=1;startSize=26;fillColor=none;horizontalStack=0;resizeParent=1;resizeParentMax=0;resizeLast=0;collapsible=1;marginBottom=0;" parent="1" vertex="1">
                    <mxGeometry x="690" y="765" width="140" height="78" as="geometry">
                        <mxRectangle x="260" y="10" width="140" height="40" as="alternateBounds"/>
                    </mxGeometry>
                </mxCell>
                <mxCell id="hUaAKtjsCZO_0fCoCIE2-13" value="+ File&#10;" style="text;strokeColor=none;fillColor=none;align=left;verticalAlign=top;spacingLeft=4;spacingRight=4;overflow=hidden;rotatable=0;points=[[0,0.5],[1,0.5]];portConstraint=eastwest;" parent="hUaAKtjsCZO_0fCoCIE2-12" vertex="1">
                    <mxGeometry y="26" width="140" height="26" as="geometry"/>
                </mxCell>
                <mxCell id="hUaAKtjsCZO_0fCoCIE2-14" value="+ Link" style="text;strokeColor=none;fillColor=none;align=left;verticalAlign=top;spacingLeft=4;spacingRight=4;overflow=hidden;rotatable=0;points=[[0,0.5],[1,0.5]];portConstraint=eastwest;" parent="hUaAKtjsCZO_0fCoCIE2-12" vertex="1">
                    <mxGeometry y="52" width="140" height="26" as="geometry"/>
                </mxCell>
                <mxCell id="VRK7nQ348HEeoWnxs1P9-29" style="edgeStyle=orthogonalEdgeStyle;rounded=0;orthogonalLoop=1;jettySize=auto;html=1;exitX=1;exitY=0.5;exitDx=0;exitDy=0;" parent="1" source="VRK7nQ348HEeoWnxs1P9-27" target="hUaAKtjsCZO_0fCoCIE2-12" edge="1">
                    <mxGeometry relative="1" as="geometry"/>
                </mxCell>
                <mxCell id="VRK7nQ348HEeoWnxs1P9-34" style="edgeStyle=orthogonalEdgeStyle;rounded=0;orthogonalLoop=1;jettySize=auto;html=1;exitX=1;exitY=0.5;exitDx=0;exitDy=0;startArrow=classic;startFill=1;" parent="1" source="VRK7nQ348HEeoWnxs1P9-33" target="VRK7nQ348HEeoWnxs1P9-31" edge="1">
                    <mxGeometry relative="1" as="geometry"/>
                </mxCell>
                <mxCell id="VRK7nQ348HEeoWnxs1P9-38" value="Response" style="swimlane;fontStyle=0;childLayout=stackLayout;horizontal=1;startSize=26;fillColor=none;horizontalStack=0;resizeParent=1;resizeParentMax=0;resizeLast=0;collapsible=1;marginBottom=0;" parent="1" vertex="1">
                    <mxGeometry x="480" y="804" width="160" height="104" as="geometry"/>
                </mxCell>
                <mxCell id="VRK7nQ348HEeoWnxs1P9-39" value="+ post: Post" style="text;strokeColor=none;fillColor=none;align=left;verticalAlign=top;spacingLeft=4;spacingRight=4;overflow=hidden;rotatable=0;points=[[0,0.5],[1,0.5]];portConstraint=eastwest;whiteSpace=wrap;html=1;" parent="VRK7nQ348HEeoWnxs1P9-38" vertex="1">
                    <mxGeometry y="26" width="160" height="26" as="geometry"/>
                </mxCell>
                <mxCell id="VRK7nQ348HEeoWnxs1P9-41" value="+ grade?: float" style="text;strokeColor=none;fillColor=none;align=left;verticalAlign=top;spacingLeft=4;spacingRight=4;overflow=hidden;rotatable=0;points=[[0,0.5],[1,0.5]];portConstraint=eastwest;" parent="VRK7nQ348HEeoWnxs1P9-38" vertex="1">
                    <mxGeometry y="52" width="160" height="26" as="geometry"/>
                </mxCell>
                <mxCell id="VRK7nQ348HEeoWnxs1P9-49" value="+ activity: Post" style="text;strokeColor=none;fillColor=none;align=left;verticalAlign=top;spacingLeft=4;spacingRight=4;overflow=hidden;rotatable=0;points=[[0,0.5],[1,0.5]];portConstraint=eastwest;" parent="VRK7nQ348HEeoWnxs1P9-38" vertex="1">
                    <mxGeometry y="78" width="160" height="26" as="geometry"/>
                </mxCell>
                <mxCell id="VRK7nQ348HEeoWnxs1P9-56" style="edgeStyle=orthogonalEdgeStyle;rounded=0;orthogonalLoop=1;jettySize=auto;html=1;startArrow=classic;startFill=1;" parent="1" source="VRK7nQ348HEeoWnxs1P9-53" target="VRK7nQ348HEeoWnxs1P9-57" edge="1">
                    <mxGeometry relative="1" as="geometry">
                        <mxPoint x="500" y="723.9999999999998" as="targetPoint"/>
                    </mxGeometry>
                </mxCell>
                <mxCell id="VRK7nQ348HEeoWnxs1P9-52" value="Comment" style="swimlane;fontStyle=0;childLayout=stackLayout;horizontal=1;startSize=26;fillColor=none;horizontalStack=0;resizeParent=1;resizeParentMax=0;resizeLast=0;collapsible=1;marginBottom=0;whiteSpace=wrap;html=1;" parent="1" vertex="1">
                    <mxGeometry x="-20" y="814" width="140" height="104" as="geometry"/>
                </mxCell>
                <mxCell id="VRK7nQ348HEeoWnxs1P9-53" value="+ post: Post" style="text;strokeColor=none;fillColor=none;align=left;verticalAlign=top;spacingLeft=4;spacingRight=4;overflow=hidden;rotatable=0;points=[[0,0.5],[1,0.5]];portConstraint=eastwest;whiteSpace=wrap;html=1;" parent="VRK7nQ348HEeoWnxs1P9-52" vertex="1">
                    <mxGeometry y="26" width="140" height="26" as="geometry"/>
                </mxCell>
                <mxCell id="VRK7nQ348HEeoWnxs1P9-54" value="+ content: string" style="text;strokeColor=none;fillColor=none;align=left;verticalAlign=top;spacingLeft=4;spacingRight=4;overflow=hidden;rotatable=0;points=[[0,0.5],[1,0.5]];portConstraint=eastwest;whiteSpace=wrap;html=1;" parent="VRK7nQ348HEeoWnxs1P9-52" vertex="1">
                    <mxGeometry y="52" width="140" height="26" as="geometry"/>
                </mxCell>
                <mxCell id="5-lYCpTg6eAdRATXSb_Q-1" value="+ content: string" style="text;strokeColor=none;fillColor=none;align=left;verticalAlign=top;spacingLeft=4;spacingRight=4;overflow=hidden;rotatable=0;points=[[0,0.5],[1,0.5]];portConstraint=eastwest;whiteSpace=wrap;html=1;" parent="VRK7nQ348HEeoWnxs1P9-52" vertex="1">
                    <mxGeometry y="78" width="140" height="26" as="geometry"/>
                </mxCell>
                <mxCell id="VRK7nQ348HEeoWnxs1P9-64" value="&lt;&lt;Enumeration&gt;&gt;&#10;PostType" style="swimlane;fontStyle=0;childLayout=stackLayout;horizontal=1;startSize=26;fillColor=none;horizontalStack=0;resizeParent=1;resizeParentMax=0;resizeLast=0;collapsible=1;marginBottom=0;" parent="1" vertex="1">
                    <mxGeometry x="530" y="354" width="140" height="156" as="geometry">
                        <mxRectangle x="260" y="10" width="140" height="40" as="alternateBounds"/>
                    </mxGeometry>
                </mxCell>
                <mxCell id="VRK7nQ348HEeoWnxs1P9-65" value="+ Notice&#10;" style="text;strokeColor=none;fillColor=none;align=left;verticalAlign=top;spacingLeft=4;spacingRight=4;overflow=hidden;rotatable=0;points=[[0,0.5],[1,0.5]];portConstraint=eastwest;" parent="VRK7nQ348HEeoWnxs1P9-64" vertex="1">
                    <mxGeometry y="26" width="140" height="26" as="geometry"/>
                </mxCell>
                <mxCell id="VRK7nQ348HEeoWnxs1P9-66" value="+ Lecture" style="text;strokeColor=none;fillColor=none;align=left;verticalAlign=top;spacingLeft=4;spacingRight=4;overflow=hidden;rotatable=0;points=[[0,0.5],[1,0.5]];portConstraint=eastwest;" parent="VRK7nQ348HEeoWnxs1P9-64" vertex="1">
                    <mxGeometry y="52" width="140" height="26" as="geometry"/>
                </mxCell>
                <mxCell id="VRK7nQ348HEeoWnxs1P9-67" value="+ Activity" style="text;strokeColor=none;fillColor=none;align=left;verticalAlign=top;spacingLeft=4;spacingRight=4;overflow=hidden;rotatable=0;points=[[0,0.5],[1,0.5]];portConstraint=eastwest;" parent="VRK7nQ348HEeoWnxs1P9-64" vertex="1">
                    <mxGeometry y="78" width="140" height="26" as="geometry"/>
                </mxCell>
                <mxCell id="VRK7nQ348HEeoWnxs1P9-68" value="+ Test" style="text;strokeColor=none;fillColor=none;align=left;verticalAlign=top;spacingLeft=4;spacingRight=4;overflow=hidden;rotatable=0;points=[[0,0.5],[1,0.5]];portConstraint=eastwest;" parent="VRK7nQ348HEeoWnxs1P9-64" vertex="1">
                    <mxGeometry y="104" width="140" height="26" as="geometry"/>
                </mxCell>
                <mxCell id="VRK7nQ348HEeoWnxs1P9-69" value="+ Response" style="text;strokeColor=none;fillColor=none;align=left;verticalAlign=top;spacingLeft=4;spacingRight=4;overflow=hidden;rotatable=0;points=[[0,0.5],[1,0.5]];portConstraint=eastwest;" parent="VRK7nQ348HEeoWnxs1P9-64" vertex="1">
                    <mxGeometry y="130" width="140" height="26" as="geometry"/>
                </mxCell>
                <mxCell id="VRK7nQ348HEeoWnxs1P9-70" value="Message" style="swimlane;fontStyle=0;childLayout=stackLayout;horizontal=1;startSize=26;fillColor=none;horizontalStack=0;resizeParent=1;resizeParentMax=0;resizeLast=0;collapsible=1;marginBottom=0;whiteSpace=wrap;html=1;" parent="1" vertex="1">
                    <mxGeometry x="-290" y="774" width="140" height="130" as="geometry"/>
                </mxCell>
                <mxCell id="VRK7nQ348HEeoWnxs1P9-71" value="+ from: User" style="text;strokeColor=none;fillColor=none;align=left;verticalAlign=top;spacingLeft=4;spacingRight=4;overflow=hidden;rotatable=0;points=[[0,0.5],[1,0.5]];portConstraint=eastwest;whiteSpace=wrap;html=1;" parent="VRK7nQ348HEeoWnxs1P9-70" vertex="1">
                    <mxGeometry y="26" width="140" height="26" as="geometry"/>
                </mxCell>
                <mxCell id="VRK7nQ348HEeoWnxs1P9-72" value="+ to: User" style="text;strokeColor=none;fillColor=none;align=left;verticalAlign=top;spacingLeft=4;spacingRight=4;overflow=hidden;rotatable=0;points=[[0,0.5],[1,0.5]];portConstraint=eastwest;whiteSpace=wrap;html=1;" parent="VRK7nQ348HEeoWnxs1P9-70" vertex="1">
                    <mxGeometry y="52" width="140" height="26" as="geometry"/>
                </mxCell>
                <mxCell id="VRK7nQ348HEeoWnxs1P9-83" value="+ content: string" style="text;strokeColor=none;fillColor=none;align=left;verticalAlign=top;spacingLeft=4;spacingRight=4;overflow=hidden;rotatable=0;points=[[0,0.5],[1,0.5]];portConstraint=eastwest;whiteSpace=wrap;html=1;" parent="VRK7nQ348HEeoWnxs1P9-70" vertex="1">
                    <mxGeometry y="78" width="140" height="26" as="geometry"/>
                </mxCell>
                <mxCell id="VRK7nQ348HEeoWnxs1P9-73" value="+ post?: Post" style="text;strokeColor=none;fillColor=none;align=left;verticalAlign=top;spacingLeft=4;spacingRight=4;overflow=hidden;rotatable=0;points=[[0,0.5],[1,0.5]];portConstraint=eastwest;whiteSpace=wrap;html=1;" parent="VRK7nQ348HEeoWnxs1P9-70" vertex="1">
                    <mxGeometry y="104" width="140" height="26" as="geometry"/>
                </mxCell>
                <mxCell id="VRK7nQ348HEeoWnxs1P9-79" style="edgeStyle=orthogonalEdgeStyle;rounded=0;orthogonalLoop=1;jettySize=auto;html=1;startArrow=classic;startFill=1;" parent="1" source="VRK7nQ348HEeoWnxs1P9-73" target="VRK7nQ348HEeoWnxs1P9-80" edge="1">
                    <mxGeometry relative="1" as="geometry">
                        <mxPoint x="140" y="1184" as="targetPoint"/>
                        <Array as="points">
                            <mxPoint x="-70" y="891"/>
                            <mxPoint x="-70" y="940"/>
                            <mxPoint x="430" y="940"/>
                            <mxPoint x="430" y="713"/>
                        </Array>
                    </mxGeometry>
                </mxCell>
                <mxCell id="VRK7nQ348HEeoWnxs1P9-84" style="edgeStyle=orthogonalEdgeStyle;rounded=0;orthogonalLoop=1;jettySize=auto;html=1;entryX=0;entryY=0.5;entryDx=0;entryDy=0;startArrow=classic;startFill=1;" parent="1" source="VRK7nQ348HEeoWnxs1P9-72" target="VRK7nQ348HEeoWnxs1P9-75" edge="1">
                    <mxGeometry relative="1" as="geometry">
                        <Array as="points">
                            <mxPoint x="-360" y="839"/>
                            <mxPoint x="-360" y="651"/>
                        </Array>
                    </mxGeometry>
                </mxCell>
                <mxCell id="CfqOVZ3k4p2RBuNGH9BN-1" value="Frequency" style="swimlane;fontStyle=0;childLayout=stackLayout;horizontal=1;startSize=26;fillColor=none;horizontalStack=0;resizeParent=1;resizeParentMax=0;resizeLast=0;collapsible=1;marginBottom=0;whiteSpace=wrap;html=1;" parent="1" vertex="1">
                    <mxGeometry x="390" y="190" width="160" height="130" as="geometry"/>
                </mxCell>
                <mxCell id="CfqOVZ3k4p2RBuNGH9BN-2" value="+ student: User" style="text;strokeColor=none;fillColor=none;align=left;verticalAlign=top;spacingLeft=4;spacingRight=4;overflow=hidden;rotatable=0;points=[[0,0.5],[1,0.5]];portConstraint=eastwest;whiteSpace=wrap;html=1;" parent="CfqOVZ3k4p2RBuNGH9BN-1" vertex="1">
                    <mxGeometry y="26" width="160" height="26" as="geometry"/>
                </mxCell>
                <mxCell id="CfqOVZ3k4p2RBuNGH9BN-3" value="+ lecture: Post" style="text;strokeColor=none;fillColor=none;align=left;verticalAlign=top;spacingLeft=4;spacingRight=4;overflow=hidden;rotatable=0;points=[[0,0.5],[1,0.5]];portConstraint=eastwest;whiteSpace=wrap;html=1;" parent="CfqOVZ3k4p2RBuNGH9BN-1" vertex="1">
                    <mxGeometry y="52" width="160" height="26" as="geometry"/>
                </mxCell>
                <mxCell id="CfqOVZ3k4p2RBuNGH9BN-4" value="+ status:&amp;nbsp;&lt;span style=&quot;text-align: center; text-wrap: nowrap;&quot;&gt;FrequencyStatus&lt;/span&gt;" style="text;strokeColor=none;fillColor=none;align=left;verticalAlign=top;spacingLeft=4;spacingRight=4;overflow=hidden;rotatable=0;points=[[0,0.5],[1,0.5]];portConstraint=eastwest;whiteSpace=wrap;html=1;" parent="CfqOVZ3k4p2RBuNGH9BN-1" vertex="1">
                    <mxGeometry y="78" width="160" height="26" as="geometry"/>
                </mxCell>
                <mxCell id="5-lYCpTg6eAdRATXSb_Q-3" value="+ justification?: string" style="text;strokeColor=none;fillColor=none;align=left;verticalAlign=top;spacingLeft=4;spacingRight=4;overflow=hidden;rotatable=0;points=[[0,0.5],[1,0.5]];portConstraint=eastwest;whiteSpace=wrap;html=1;" parent="CfqOVZ3k4p2RBuNGH9BN-1" vertex="1">
                    <mxGeometry y="104" width="160" height="26" as="geometry"/>
                </mxCell>
                <mxCell id="CfqOVZ3k4p2RBuNGH9BN-6" value="&lt;&lt;Enumeration&gt;&gt;&#10;FrequencyStatus" style="swimlane;fontStyle=0;childLayout=stackLayout;horizontal=1;startSize=26;fillColor=none;horizontalStack=0;resizeParent=1;resizeParentMax=0;resizeLast=0;collapsible=1;marginBottom=0;" parent="1" vertex="1">
                    <mxGeometry x="640" y="190" width="140" height="104" as="geometry">
                        <mxRectangle x="260" y="10" width="140" height="40" as="alternateBounds"/>
                    </mxGeometry>
                </mxCell>
                <mxCell id="CfqOVZ3k4p2RBuNGH9BN-7" value="+ Present&#10;" style="text;strokeColor=none;fillColor=none;align=left;verticalAlign=top;spacingLeft=4;spacingRight=4;overflow=hidden;rotatable=0;points=[[0,0.5],[1,0.5]];portConstraint=eastwest;" parent="CfqOVZ3k4p2RBuNGH9BN-6" vertex="1">
                    <mxGeometry y="26" width="140" height="26" as="geometry"/>
                </mxCell>
                <mxCell id="CfqOVZ3k4p2RBuNGH9BN-8" value="+ Absent" style="text;strokeColor=none;fillColor=none;align=left;verticalAlign=top;spacingLeft=4;spacingRight=4;overflow=hidden;rotatable=0;points=[[0,0.5],[1,0.5]];portConstraint=eastwest;" parent="CfqOVZ3k4p2RBuNGH9BN-6" vertex="1">
                    <mxGeometry y="52" width="140" height="26" as="geometry"/>
                </mxCell>
                <mxCell id="5-lYCpTg6eAdRATXSb_Q-2" value="+ Justified" style="text;strokeColor=none;fillColor=none;align=left;verticalAlign=top;spacingLeft=4;spacingRight=4;overflow=hidden;rotatable=0;points=[[0,0.5],[1,0.5]];portConstraint=eastwest;" parent="CfqOVZ3k4p2RBuNGH9BN-6" vertex="1">
                    <mxGeometry y="78" width="140" height="26" as="geometry"/>
                </mxCell>
                <mxCell id="CfqOVZ3k4p2RBuNGH9BN-9" style="edgeStyle=orthogonalEdgeStyle;rounded=0;orthogonalLoop=1;jettySize=auto;html=1;" parent="1" source="CfqOVZ3k4p2RBuNGH9BN-4" target="CfqOVZ3k4p2RBuNGH9BN-6" edge="1">
                    <mxGeometry relative="1" as="geometry"/>
                </mxCell>
                <mxCell id="CfqOVZ3k4p2RBuNGH9BN-11" style="edgeStyle=orthogonalEdgeStyle;rounded=0;orthogonalLoop=1;jettySize=auto;html=1;" parent="1" source="VRK7nQ348HEeoWnxs1P9-36" target="VRK7nQ348HEeoWnxs1P9-64" edge="1">
                    <mxGeometry relative="1" as="geometry"/>
                </mxCell>
                <mxCell id="CfqOVZ3k4p2RBuNGH9BN-12" style="edgeStyle=orthogonalEdgeStyle;rounded=0;orthogonalLoop=1;jettySize=auto;html=1;startArrow=classic;startFill=1;" parent="1" source="CfqOVZ3k4p2RBuNGH9BN-10" target="CfqOVZ3k4p2RBuNGH9BN-1" edge="1">
                    <mxGeometry relative="1" as="geometry"/>
                </mxCell>
                <mxCell id="CfqOVZ3k4p2RBuNGH9BN-13" style="edgeStyle=orthogonalEdgeStyle;rounded=0;orthogonalLoop=1;jettySize=auto;html=1;exitX=1;exitY=0.5;exitDx=0;exitDy=0;entryX=1;entryY=0.5;entryDx=0;entryDy=0;startArrow=classic;startFill=1;" parent="1" source="VRK7nQ348HEeoWnxs1P9-39" target="VRK7nQ348HEeoWnxs1P9-37" edge="1">
                    <mxGeometry relative="1" as="geometry">
                        <Array as="points">
                            <mxPoint x="670" y="843"/>
                            <mxPoint x="670" y="764"/>
                            <mxPoint x="480" y="764"/>
                            <mxPoint x="480" y="635"/>
                        </Array>
                    </mxGeometry>
                </mxCell>
                <mxCell id="CfqOVZ3k4p2RBuNGH9BN-14" style="edgeStyle=orthogonalEdgeStyle;rounded=0;orthogonalLoop=1;jettySize=auto;html=1;entryX=1;entryY=0.5;entryDx=0;entryDy=0;startArrow=classic;startFill=1;" parent="1" source="VRK7nQ348HEeoWnxs1P9-49" target="VRK7nQ348HEeoWnxs1P9-48" edge="1">
                    <mxGeometry relative="1" as="geometry">
                        <Array as="points">
                            <mxPoint x="450" y="895"/>
                            <mxPoint x="450" y="661"/>
                        </Array>
                    </mxGeometry>
                </mxCell>
                <mxCell id="CfqOVZ3k4p2RBuNGH9BN-20" style="edgeStyle=orthogonalEdgeStyle;rounded=0;orthogonalLoop=1;jettySize=auto;html=1;entryX=1;entryY=0.5;entryDx=0;entryDy=0;startArrow=classic;startFill=1;" parent="1" source="VRK7nQ348HEeoWnxs1P9-21" target="hUaAKtjsCZO_0fCoCIE2-7" edge="1">
                    <mxGeometry relative="1" as="geometry"/>
                </mxCell>
                <mxCell id="CfqOVZ3k4p2RBuNGH9BN-24" value="ActivityGroup" style="swimlane;fontStyle=0;childLayout=stackLayout;horizontal=1;startSize=26;fillColor=none;horizontalStack=0;resizeParent=1;resizeParentMax=0;resizeLast=0;collapsible=1;marginBottom=0;whiteSpace=wrap;html=1;" parent="1" vertex="1">
                    <mxGeometry x="-50" y="380" width="160" height="104" as="geometry"/>
                </mxCell>
                <mxCell id="CfqOVZ3k4p2RBuNGH9BN-25" value="+ classroom: Classroom" style="text;strokeColor=none;fillColor=none;align=left;verticalAlign=top;spacingLeft=4;spacingRight=4;overflow=hidden;rotatable=0;points=[[0,0.5],[1,0.5]];portConstraint=eastwest;whiteSpace=wrap;html=1;" parent="CfqOVZ3k4p2RBuNGH9BN-24" vertex="1">
                    <mxGeometry y="26" width="160" height="26" as="geometry"/>
                </mxCell>
                <mxCell id="CfqOVZ3k4p2RBuNGH9BN-26" value="- activities: Activity[]" style="text;strokeColor=none;fillColor=none;align=left;verticalAlign=top;spacingLeft=4;spacingRight=4;overflow=hidden;rotatable=0;points=[[0,0.5],[1,0.5]];portConstraint=eastwest;whiteSpace=wrap;html=1;" parent="CfqOVZ3k4p2RBuNGH9BN-24" vertex="1">
                    <mxGeometry y="52" width="160" height="26" as="geometry"/>
                </mxCell>
                <mxCell id="CfqOVZ3k4p2RBuNGH9BN-30" style="edgeStyle=orthogonalEdgeStyle;rounded=0;orthogonalLoop=1;jettySize=auto;html=1;exitX=1;exitY=0.5;exitDx=0;exitDy=0;" parent="CfqOVZ3k4p2RBuNGH9BN-24" source="CfqOVZ3k4p2RBuNGH9BN-26" target="CfqOVZ3k4p2RBuNGH9BN-26" edge="1">
                    <mxGeometry relative="1" as="geometry"/>
                </mxCell>
                <mxCell id="5-lYCpTg6eAdRATXSb_Q-4" value="+ isRecovery: boolean" style="text;strokeColor=none;fillColor=none;align=left;verticalAlign=top;spacingLeft=4;spacingRight=4;overflow=hidden;rotatable=0;points=[[0,0.5],[1,0.5]];portConstraint=eastwest;whiteSpace=wrap;html=1;" parent="CfqOVZ3k4p2RBuNGH9BN-24" vertex="1">
                    <mxGeometry y="78" width="160" height="26" as="geometry"/>
                </mxCell>
                <mxCell id="CfqOVZ3k4p2RBuNGH9BN-29" style="edgeStyle=orthogonalEdgeStyle;rounded=0;orthogonalLoop=1;jettySize=auto;html=1;entryX=1;entryY=0.5;entryDx=0;entryDy=0;startArrow=classic;startFill=1;" parent="1" source="CfqOVZ3k4p2RBuNGH9BN-28" target="CfqOVZ3k4p2RBuNGH9BN-25" edge="1">
                    <mxGeometry relative="1" as="geometry"/>
                </mxCell>
                <mxCell id="CfqOVZ3k4p2RBuNGH9BN-32" style="edgeStyle=orthogonalEdgeStyle;rounded=0;orthogonalLoop=1;jettySize=auto;html=1;startArrow=classic;startFill=1;" parent="1" source="CfqOVZ3k4p2RBuNGH9BN-31" target="CfqOVZ3k4p2RBuNGH9BN-26" edge="1">
                    <mxGeometry relative="1" as="geometry">
                        <Array as="points">
                            <mxPoint x="-80" y="609"/>
                            <mxPoint x="-80" y="445"/>
                        </Array>
                    </mxGeometry>
                </mxCell>
                <mxCell id="CfqOVZ3k4p2RBuNGH9BN-34" style="edgeStyle=orthogonalEdgeStyle;rounded=0;orthogonalLoop=1;jettySize=auto;html=1;startArrow=classic;startFill=1;" parent="1" source="g4L_jA9QiXiYjec4vCly-7" target="hUaAKtjsCZO_0fCoCIE2-2" edge="1">
                    <mxGeometry relative="1" as="geometry">
                        <Array as="points">
                            <mxPoint x="-630" y="359"/>
                            <mxPoint x="-630" y="394"/>
                        </Array>
                    </mxGeometry>
                </mxCell>
                <mxCell id="VMD8MPlAyqUxdyjEzqiq-2" style="edgeStyle=orthogonalEdgeStyle;rounded=0;orthogonalLoop=1;jettySize=auto;html=1;startArrow=classic;startFill=1;" parent="1" source="VRK7nQ348HEeoWnxs1P9-71" target="VRK7nQ348HEeoWnxs1P9-74" edge="1">
                    <mxGeometry relative="1" as="geometry"/>
                </mxCell>
                <mxCell id="zQ5y1OaaGDD5Amvugist-2" style="edgeStyle=orthogonalEdgeStyle;rounded=0;orthogonalLoop=1;jettySize=auto;html=1;entryX=0.5;entryY=0;entryDx=0;entryDy=0;startArrow=classic;startFill=1;" parent="1" source="tpuzLj_R7ABDwXsxG5K2-35" target="tpuzLj_R7ABDwXsxG5K2-16" edge="1">
                    <mxGeometry relative="1" as="geometry">
                        <Array as="points">
                            <mxPoint x="-60" y="625"/>
                            <mxPoint x="-60" y="514"/>
                            <mxPoint x="200" y="514"/>
                            <mxPoint x="200" y="374"/>
                            <mxPoint x="325" y="374"/>
                        </Array>
                    </mxGeometry>
                </mxCell>
                <mxCell id="zQ5y1OaaGDD5Amvugist-3" value="Associado ao controle de criação de Post" style="edgeLabel;html=1;align=center;verticalAlign=middle;resizable=0;points=[];" parent="zQ5y1OaaGDD5Amvugist-2" vertex="1" connectable="0">
                    <mxGeometry x="-0.202" y="1" relative="1" as="geometry">
                        <mxPoint as="offset"/>
                    </mxGeometry>
                </mxCell>
            </root>
        </mxGraphModel>
    </diagram>
</mxfile>